<svg width="20" height="20" viewBox="0 0 20 20" fill="none" xmlns="http://www.w3.org/2000/svg">
<mask id="mask0_45_620" style="mask-type:luminance" maskUnits="userSpaceOnUse" x="0" y="0" width="20" height="20">
<path d="M10 17.5C14.1422 17.5 17.5 14.1422 17.5 10C17.5 5.85775 14.1422 2.5 10 2.5C5.85775 2.5 2.5 5.85775 2.5 10C2.5 14.1422 5.85775 17.5 10 17.5Z" stroke="white" stroke-width="4"/>
<path d="M10 17.5C14.1423 17.5 17.5 14.1423 17.5 10C17.5 5.85775 14.1423 2.5 10 2.5C5.85775 2.5 2.5 5.85775 2.5 10C2.5 14.1423 5.85775 17.5 10 17.5Z" fill="white" stroke="white" stroke-width="4" stroke-linejoin="round"/>
<path d="M13.375 11.125L10 7.75L6.625 11.125" stroke="black" stroke-width="4" stroke-linecap="round" stroke-linejoin="round"/>
</mask>
<g mask="url(#mask0_45_620)">
<path d="M-1 -1H21V21H-1V-1Z" fill="#50FD61"/>
</g>
</svg>
