<svg width="18" height="18" viewBox="0 0 18 18" fill="none" xmlns="http://www.w3.org/2000/svg">
<path d="M17.3333 3.24445C16.5889 1.71667 14.4444 0.466672 11.95 1.19445C10.758 1.53875 9.71806 2.27711 9 3.28889C8.28194 2.27711 7.24197 1.53875 6.05 1.19445C3.55 0.477783 1.41111 1.71667 0.666667 3.24445C-0.377778 5.38334 0.0555556 7.78889 1.95556 10.3945C3.44444 12.4333 5.57222 14.5 8.66111 16.9C8.75873 16.9761 8.87898 17.0175 9.00278 17.0175C9.12658 17.0175 9.24683 16.9761 9.34445 16.9C12.4278 14.5056 14.5611 12.4556 16.05 10.3945C17.9444 7.78889 18.3778 5.38334 17.3333 3.24445Z" fill="#E40000"/>
</svg>
