<svg width="274" height="69" viewBox="0 0 274 69" fill="none" xmlns="http://www.w3.org/2000/svg">
<path d="M45 30.5833C46.3292 30.5833 47.4674 30.1105 48.4147 29.1647C49.3621 28.219 49.8349 27.0808 49.8333 25.75C49.8333 24.4208 49.3605 23.2834 48.4147 22.3377C47.469 21.3919 46.3308 20.9183 45 20.9167C43.6708 20.9167 42.5334 21.3903 41.5877 22.3377C40.6419 23.285 40.1683 24.4224 40.1667 25.75C40.1667 27.0792 40.6403 28.2174 41.5877 29.1647C42.535 30.1121 43.6724 30.5849 45 30.5833ZM32.9167 30.1V20.9167H28.0833V23.3333C28.0833 24.8639 28.5264 26.2438 29.4125 27.4731C30.2986 28.7024 31.4667 29.578 32.9167 30.1ZM57.0833 30.1C58.5333 29.5764 59.7014 28.6999 60.5875 27.4707C61.4736 26.2414 61.9167 24.8623 61.9167 23.3333V20.9167H57.0833V30.1ZM42.5833 49.9167V42.425C40.6097 41.9819 38.848 41.1466 37.2981 39.9189C35.7482 38.6912 34.6099 37.1502 33.8833 35.2958C30.8625 34.9333 28.3355 33.6146 26.3022 31.3397C24.269 29.0649 23.2516 26.3961 23.25 23.3333V20.9167C23.25 19.5875 23.7237 18.4501 24.671 17.5043C25.6183 16.5586 26.7558 16.0849 28.0833 16.0833H32.9167C32.9167 14.7542 33.3903 13.6167 34.3377 12.671C35.285 11.7253 36.4224 11.2516 37.75 11.25H52.25C53.5792 11.25 54.7174 11.7237 55.6647 12.671C56.6121 13.6183 57.0849 14.7558 57.0833 16.0833H61.9167C63.2458 16.0833 64.3841 16.557 65.3314 17.5043C66.2787 18.4517 66.7516 19.5891 66.75 20.9167V23.3333C66.75 26.3944 65.7326 29.0632 63.6977 31.3397C61.6629 33.6162 59.1359 34.9349 56.1167 35.2958C55.3917 37.1486 54.2542 38.6896 52.7043 39.9189C51.1544 41.1482 49.3919 41.9836 47.4167 42.425V49.9167H54.6667C55.3514 49.9167 55.9257 50.1487 56.3897 50.6127C56.8537 51.0767 57.0849 51.6502 57.0833 52.3333C57.0833 53.0181 56.8513 53.5924 56.3873 54.0564C55.9233 54.5204 55.3498 54.7516 54.6667 54.75H35.3333C34.6486 54.75 34.0751 54.518 33.6127 54.054C33.1503 53.59 32.9183 53.0164 32.9167 52.3333C32.9167 51.6486 33.1487 51.0751 33.6127 50.6127C34.0767 50.1503 34.6502 49.9183 35.3333 49.9167H42.5833Z" fill="url(#paint0_linear_60_661)"/>
<path d="M88.7713 28H85.4759L90.4972 13.4545H94.4602L99.4744 28H96.179L92.5355 16.7784H92.4219L88.7713 28ZM88.5653 22.2827H96.3494V24.6832H88.5653V22.2827ZM109.972 17.0909L106.158 28H102.749L98.9347 17.0909H102.131L104.396 24.8963H104.51L106.768 17.0909H109.972ZM116.14 28.2131C115.018 28.2131 114.052 27.9858 113.242 27.5312C112.437 27.072 111.817 26.4233 111.381 25.5852C110.946 24.7424 110.728 23.7457 110.728 22.5952C110.728 21.473 110.946 20.4882 111.381 19.6406C111.817 18.7931 112.43 18.1326 113.221 17.6591C114.016 17.1856 114.949 16.9489 116.019 16.9489C116.739 16.9489 117.409 17.0649 118.029 17.2969C118.654 17.5241 119.199 17.8674 119.663 18.3267C120.131 18.786 120.496 19.3636 120.756 20.0597C121.017 20.7509 121.147 21.5606 121.147 22.4886V23.3196H111.935V21.4446H118.299C118.299 21.009 118.204 20.6231 118.015 20.2869C117.826 19.9508 117.563 19.688 117.227 19.4986C116.895 19.3045 116.509 19.2074 116.069 19.2074C115.61 19.2074 115.202 19.3139 114.847 19.527C114.497 19.7353 114.222 20.017 114.023 20.3722C113.825 20.7225 113.723 21.1132 113.718 21.544V23.3267C113.718 23.8665 113.817 24.3329 114.016 24.7259C114.22 25.1188 114.506 25.4219 114.876 25.6349C115.245 25.848 115.683 25.9545 116.19 25.9545C116.526 25.9545 116.834 25.9072 117.113 25.8125C117.392 25.7178 117.631 25.5758 117.83 25.3864C118.029 25.197 118.181 24.965 118.285 24.6903L121.083 24.875C120.941 25.5473 120.65 26.1345 120.21 26.6364C119.774 27.1335 119.21 27.5218 118.519 27.8011C117.833 28.0758 117.04 28.2131 116.14 28.2131ZM123.121 28V17.0909H126.055V18.9943H126.168C126.367 18.3172 126.701 17.8059 127.17 17.4602C127.638 17.1098 128.178 16.9347 128.789 16.9347C128.941 16.9347 129.104 16.9441 129.279 16.9631C129.454 16.982 129.608 17.008 129.741 17.0412V19.7259C129.599 19.6832 129.402 19.6454 129.151 19.6122C128.9 19.5791 128.671 19.5625 128.462 19.5625C128.017 19.5625 127.62 19.6596 127.269 19.8537C126.924 20.0431 126.649 20.3082 126.445 20.6491C126.246 20.9901 126.147 21.383 126.147 21.8281V28H123.121ZM134.103 28.206C133.407 28.206 132.787 28.0852 132.243 27.8438C131.698 27.5975 131.267 27.2353 130.95 26.7571C130.637 26.2741 130.481 25.6728 130.481 24.9531C130.481 24.3471 130.592 23.8381 130.815 23.4261C131.038 23.0142 131.341 22.6828 131.724 22.4318C132.108 22.1809 132.543 21.9915 133.031 21.8636C133.523 21.7358 134.039 21.6458 134.579 21.5938C135.214 21.5275 135.725 21.4659 136.113 21.4091C136.502 21.3475 136.783 21.2576 136.958 21.1392C137.134 21.0208 137.221 20.8456 137.221 20.6136V20.571C137.221 20.1212 137.079 19.7732 136.795 19.527C136.516 19.2808 136.118 19.1577 135.602 19.1577C135.057 19.1577 134.624 19.2784 134.302 19.5199C133.98 19.7566 133.767 20.0549 133.663 20.4148L130.865 20.1875C131.007 19.5246 131.286 18.9517 131.703 18.4688C132.119 17.9811 132.657 17.607 133.315 17.3466C133.978 17.0814 134.745 16.9489 135.616 16.9489C136.222 16.9489 136.802 17.0199 137.356 17.1619C137.915 17.304 138.41 17.5241 138.841 17.8224C139.276 18.1207 139.619 18.5043 139.87 18.973C140.121 19.437 140.247 19.9934 140.247 20.642V28H137.377V26.4872H137.292C137.117 26.8281 136.883 27.1288 136.589 27.3892C136.296 27.6449 135.943 27.8461 135.531 27.9929C135.119 28.1349 134.643 28.206 134.103 28.206ZM134.97 26.1179C135.415 26.1179 135.808 26.0303 136.149 25.8551C136.49 25.6752 136.757 25.4337 136.951 25.1307C137.145 24.8277 137.243 24.4844 137.243 24.1009V22.9432C137.148 23.0047 137.018 23.0616 136.852 23.1136C136.691 23.161 136.509 23.206 136.305 23.2486C136.101 23.2865 135.898 23.322 135.694 23.3551C135.491 23.3835 135.306 23.4096 135.14 23.4332C134.785 23.4853 134.475 23.5682 134.21 23.6818C133.945 23.7955 133.739 23.9493 133.592 24.1435C133.445 24.3329 133.372 24.5696 133.372 24.8537C133.372 25.2656 133.521 25.5805 133.819 25.7983C134.122 26.0114 134.506 26.1179 134.97 26.1179ZM147.509 32.3182C146.529 32.3182 145.688 32.1832 144.988 31.9134C144.292 31.6482 143.738 31.286 143.326 30.8267C142.914 30.3674 142.646 29.8513 142.523 29.2784L145.321 28.902C145.407 29.1198 145.542 29.3234 145.726 29.5128C145.911 29.7022 146.155 29.8537 146.458 29.9673C146.766 30.0857 147.14 30.1449 147.58 30.1449C148.238 30.1449 148.78 29.9839 149.206 29.6619C149.637 29.3447 149.853 28.812 149.853 28.0639V26.0682H149.725C149.592 26.3712 149.393 26.6577 149.128 26.9276C148.863 27.1974 148.522 27.4176 148.105 27.5881C147.689 27.7585 147.192 27.8438 146.614 27.8438C145.795 27.8438 145.049 27.6544 144.377 27.2756C143.709 26.892 143.176 26.3073 142.779 25.5213C142.386 24.7306 142.189 23.7315 142.189 22.5241C142.189 21.2884 142.391 20.2562 142.793 19.4276C143.195 18.599 143.73 17.9787 144.398 17.5668C145.07 17.1548 145.807 16.9489 146.607 16.9489C147.218 16.9489 147.729 17.053 148.141 17.2614C148.553 17.465 148.884 17.7206 149.135 18.0284C149.391 18.3314 149.587 18.6297 149.725 18.9233H149.838V17.0909H152.843V28.1065C152.843 29.0346 152.615 29.8111 152.161 30.4361C151.706 31.0611 151.077 31.5298 150.272 31.8423C149.471 32.1596 148.551 32.3182 147.509 32.3182ZM147.573 25.571C148.06 25.571 148.472 25.4503 148.809 25.2088C149.15 24.9626 149.41 24.6122 149.59 24.1577C149.775 23.6984 149.867 23.1491 149.867 22.5099C149.867 21.8707 149.777 21.3168 149.597 20.848C149.417 20.3745 149.157 20.0076 148.816 19.7472C148.475 19.4867 148.06 19.3565 147.573 19.3565C147.076 19.3565 146.657 19.4915 146.316 19.7614C145.975 20.0265 145.717 20.3958 145.542 20.8693C145.366 21.3428 145.279 21.8897 145.279 22.5099C145.279 23.1397 145.366 23.6842 145.542 24.1435C145.721 24.598 145.98 24.9508 146.316 25.2017C146.657 25.4479 147.076 25.571 147.573 25.571ZM160.222 28.2131C159.1 28.2131 158.134 27.9858 157.324 27.5312C156.519 27.072 155.899 26.4233 155.463 25.5852C155.028 24.7424 154.81 23.7457 154.81 22.5952C154.81 21.473 155.028 20.4882 155.463 19.6406C155.899 18.7931 156.512 18.1326 157.303 17.6591C158.098 17.1856 159.031 16.9489 160.101 16.9489C160.821 16.9489 161.491 17.0649 162.111 17.2969C162.736 17.5241 163.281 17.8674 163.745 18.3267C164.213 18.786 164.578 19.3636 164.838 20.0597C165.099 20.7509 165.229 21.5606 165.229 22.4886V23.3196H156.017V21.4446H162.381C162.381 21.009 162.286 20.6231 162.097 20.2869C161.908 19.9508 161.645 19.688 161.309 19.4986C160.977 19.3045 160.591 19.2074 160.151 19.2074C159.692 19.2074 159.284 19.3139 158.929 19.527C158.579 19.7353 158.304 20.017 158.105 20.3722C157.907 20.7225 157.805 21.1132 157.8 21.544V23.3267C157.8 23.8665 157.9 24.3329 158.098 24.7259C158.302 25.1188 158.588 25.4219 158.958 25.6349C159.327 25.848 159.765 25.9545 160.272 25.9545C160.608 25.9545 160.916 25.9072 161.195 25.8125C161.474 25.7178 161.713 25.5758 161.912 25.3864C162.111 25.197 162.263 24.965 162.367 24.6903L165.165 24.875C165.023 25.5473 164.732 26.1345 164.292 26.6364C163.856 27.1335 163.292 27.5218 162.601 27.8011C161.915 28.0758 161.122 28.2131 160.222 28.2131ZM181.534 18.1562C181.435 17.8106 181.295 17.5052 181.115 17.2401C180.935 16.9702 180.715 16.7429 180.455 16.5582C180.199 16.3688 179.905 16.2244 179.574 16.125C179.247 16.0256 178.885 15.9759 178.487 15.9759C177.744 15.9759 177.09 16.1605 176.527 16.5298C175.968 16.8991 175.533 17.4366 175.22 18.142C174.908 18.8428 174.751 19.6998 174.751 20.7131C174.751 21.7263 174.905 22.5881 175.213 23.2983C175.521 24.0085 175.956 24.5507 176.52 24.9247C177.083 25.294 177.749 25.4787 178.516 25.4787C179.212 25.4787 179.806 25.3556 180.298 25.1094C180.795 24.8584 181.174 24.5057 181.435 24.0511C181.7 23.5966 181.832 23.0592 181.832 22.4389L182.457 22.5312H178.707V20.2159H184.794V22.0483C184.794 23.3267 184.524 24.4252 183.984 25.3438C183.445 26.2576 182.701 26.9631 181.754 27.4602C180.807 27.9527 179.723 28.1989 178.501 28.1989C177.138 28.1989 175.94 27.8982 174.908 27.2969C173.875 26.6908 173.071 25.8314 172.493 24.7188C171.92 23.6013 171.634 22.2756 171.634 20.7415C171.634 19.5625 171.804 18.5114 172.145 17.5881C172.491 16.66 172.973 15.8741 173.594 15.2301C174.214 14.5862 174.936 14.0961 175.76 13.7599C176.584 13.4238 177.476 13.2557 178.438 13.2557C179.261 13.2557 180.028 13.3764 180.739 13.6179C181.449 13.8546 182.079 14.1908 182.628 14.6264C183.182 15.062 183.634 15.5805 183.984 16.1818C184.335 16.7784 184.56 17.4366 184.659 18.1562H181.534ZM194.043 23.3551V17.0909H197.069V28H194.164V26.0185H194.05C193.804 26.6577 193.394 27.1714 192.821 27.5597C192.253 27.9479 191.56 28.142 190.74 28.142C190.011 28.142 189.37 27.9763 188.816 27.6449C188.262 27.3134 187.828 26.8423 187.516 26.2315C187.208 25.6207 187.052 24.8892 187.047 24.0369V17.0909H190.073V23.4972C190.078 24.1411 190.25 24.6501 190.591 25.0241C190.932 25.3982 191.389 25.5852 191.962 25.5852C192.327 25.5852 192.667 25.5024 192.985 25.3366C193.302 25.1662 193.558 24.9152 193.752 24.5838C193.951 24.2524 194.048 23.8428 194.043 23.3551ZM204.46 28.2131C203.338 28.2131 202.372 27.9858 201.562 27.5312C200.758 27.072 200.137 26.4233 199.702 25.5852C199.266 24.7424 199.048 23.7457 199.048 22.5952C199.048 21.473 199.266 20.4882 199.702 19.6406C200.137 18.7931 200.75 18.1326 201.541 17.6591C202.337 17.1856 203.269 16.9489 204.339 16.9489C205.059 16.9489 205.729 17.0649 206.349 17.2969C206.974 17.5241 207.519 17.8674 207.983 18.3267C208.452 18.786 208.816 19.3636 209.077 20.0597C209.337 20.7509 209.467 21.5606 209.467 22.4886V23.3196H200.256V21.4446H206.619C206.619 21.009 206.525 20.6231 206.335 20.2869C206.146 19.9508 205.883 19.688 205.547 19.4986C205.215 19.3045 204.83 19.2074 204.389 19.2074C203.93 19.2074 203.523 19.3139 203.168 19.527C202.817 19.7353 202.543 20.017 202.344 20.3722C202.145 20.7225 202.043 21.1132 202.038 21.544V23.3267C202.038 23.8665 202.138 24.3329 202.337 24.7259C202.54 25.1188 202.827 25.4219 203.196 25.6349C203.565 25.848 204.003 25.9545 204.51 25.9545C204.846 25.9545 205.154 25.9072 205.433 25.8125C205.713 25.7178 205.952 25.5758 206.151 25.3864C206.349 25.197 206.501 24.965 206.605 24.6903L209.403 24.875C209.261 25.5473 208.97 26.1345 208.53 26.6364C208.094 27.1335 207.531 27.5218 206.839 27.8011C206.153 28.0758 205.36 28.2131 204.46 28.2131ZM220.518 20.2017L217.749 20.3722C217.701 20.1354 217.599 19.9223 217.443 19.733C217.287 19.5388 217.081 19.3849 216.825 19.2713C216.574 19.1529 216.274 19.0938 215.923 19.0938C215.455 19.0938 215.059 19.1932 214.737 19.392C214.415 19.5862 214.254 19.8466 214.254 20.1733C214.254 20.4337 214.358 20.6539 214.567 20.8338C214.775 21.0137 215.133 21.1581 215.639 21.267L217.614 21.6648C218.674 21.8826 219.465 22.233 219.986 22.7159C220.507 23.1989 220.767 23.8333 220.767 24.6193C220.767 25.3343 220.556 25.9616 220.135 26.5014C219.718 27.0412 219.145 27.4626 218.416 27.7656C217.692 28.0639 216.856 28.2131 215.909 28.2131C214.465 28.2131 213.314 27.9124 212.457 27.3111C211.605 26.705 211.106 25.8812 210.959 24.8395L213.935 24.6832C214.025 25.1236 214.242 25.4598 214.588 25.6918C214.934 25.919 215.376 26.0327 215.916 26.0327C216.446 26.0327 216.873 25.9309 217.195 25.7273C217.521 25.5189 217.687 25.2514 217.692 24.9247C217.687 24.6501 217.571 24.4252 217.344 24.25C217.116 24.0701 216.766 23.9328 216.293 23.8381L214.403 23.4616C213.338 23.2486 212.545 22.8793 212.024 22.3537C211.508 21.8281 211.25 21.1581 211.25 20.3438C211.25 19.643 211.439 19.0393 211.818 18.5327C212.202 18.026 212.739 17.6354 213.43 17.3608C214.126 17.0862 214.941 16.9489 215.874 16.9489C217.251 16.9489 218.336 17.2401 219.126 17.8224C219.922 18.4048 220.386 19.1979 220.518 20.2017ZM231.749 20.2017L228.979 20.3722C228.932 20.1354 228.83 19.9223 228.674 19.733C228.517 19.5388 228.311 19.3849 228.056 19.2713C227.805 19.1529 227.504 19.0938 227.154 19.0938C226.685 19.0938 226.29 19.1932 225.968 19.392C225.646 19.5862 225.485 19.8466 225.485 20.1733C225.485 20.4337 225.589 20.6539 225.797 20.8338C226.006 21.0137 226.363 21.1581 226.87 21.267L228.844 21.6648C229.905 21.8826 230.695 22.233 231.216 22.7159C231.737 23.1989 231.998 23.8333 231.998 24.6193C231.998 25.3343 231.787 25.9616 231.365 26.5014C230.949 27.0412 230.376 27.4626 229.647 27.7656C228.922 28.0639 228.087 28.2131 227.14 28.2131C225.695 28.2131 224.545 27.9124 223.688 27.3111C222.836 26.705 222.336 25.8812 222.189 24.8395L225.165 24.6832C225.255 25.1236 225.473 25.4598 225.819 25.6918C226.164 25.919 226.607 26.0327 227.147 26.0327C227.677 26.0327 228.103 25.9309 228.425 25.7273C228.752 25.5189 228.917 25.2514 228.922 24.9247C228.917 24.6501 228.801 24.4252 228.574 24.25C228.347 24.0701 227.997 23.9328 227.523 23.8381L225.634 23.4616C224.569 23.2486 223.775 22.8793 223.255 22.3537C222.739 21.8281 222.48 21.1581 222.48 20.3438C222.48 19.643 222.67 19.0393 223.049 18.5327C223.432 18.026 223.97 17.6354 224.661 17.3608C225.357 17.0862 226.171 16.9489 227.104 16.9489C228.482 16.9489 229.566 17.2401 230.357 17.8224C231.152 18.4048 231.616 19.1979 231.749 20.2017ZM238.874 28.2131C237.752 28.2131 236.786 27.9858 235.977 27.5312C235.172 27.072 234.551 26.4233 234.116 25.5852C233.68 24.7424 233.462 23.7457 233.462 22.5952C233.462 21.473 233.68 20.4882 234.116 19.6406C234.551 18.7931 235.165 18.1326 235.955 17.6591C236.751 17.1856 237.683 16.9489 238.754 16.9489C239.473 16.9489 240.143 17.0649 240.763 17.2969C241.388 17.5241 241.933 17.8674 242.397 18.3267C242.866 18.786 243.23 19.3636 243.491 20.0597C243.751 20.7509 243.881 21.5606 243.881 22.4886V23.3196H234.67V21.4446H241.033C241.033 21.009 240.939 20.6231 240.749 20.2869C240.56 19.9508 240.297 19.688 239.961 19.4986C239.629 19.3045 239.244 19.2074 238.803 19.2074C238.344 19.2074 237.937 19.3139 237.582 19.527C237.231 19.7353 236.957 20.017 236.758 20.3722C236.559 20.7225 236.457 21.1132 236.452 21.544V23.3267C236.452 23.8665 236.552 24.3329 236.751 24.7259C236.954 25.1188 237.241 25.4219 237.61 25.6349C237.979 25.848 238.417 25.9545 238.924 25.9545C239.26 25.9545 239.568 25.9072 239.847 25.8125C240.127 25.7178 240.366 25.5758 240.565 25.3864C240.763 25.197 240.915 24.965 241.019 24.6903L243.817 24.875C243.675 25.5473 243.384 26.1345 242.944 26.6364C242.508 27.1335 241.945 27.5218 241.254 27.8011C240.567 28.0758 239.774 28.2131 238.874 28.2131ZM254.933 20.2017L252.163 20.3722C252.115 20.1354 252.013 19.9223 251.857 19.733C251.701 19.5388 251.495 19.3849 251.239 19.2713C250.988 19.1529 250.688 19.0938 250.337 19.0938C249.869 19.0938 249.473 19.1932 249.151 19.392C248.829 19.5862 248.668 19.8466 248.668 20.1733C248.668 20.4337 248.772 20.6539 248.981 20.8338C249.189 21.0137 249.547 21.1581 250.053 21.267L252.028 21.6648C253.088 21.8826 253.879 22.233 254.4 22.7159C254.921 23.1989 255.181 23.8333 255.181 24.6193C255.181 25.3343 254.97 25.9616 254.549 26.5014C254.132 27.0412 253.559 27.4626 252.83 27.7656C252.106 28.0639 251.27 28.2131 250.323 28.2131C248.879 28.2131 247.728 27.9124 246.871 27.3111C246.019 26.705 245.52 25.8812 245.373 24.8395L248.349 24.6832C248.439 25.1236 248.656 25.4598 249.002 25.6918C249.348 25.919 249.79 26.0327 250.33 26.0327C250.861 26.0327 251.287 25.9309 251.609 25.7273C251.935 25.5189 252.101 25.2514 252.106 24.9247C252.101 24.6501 251.985 24.4252 251.758 24.25C251.531 24.0701 251.18 23.9328 250.707 23.8381L248.817 23.4616C247.752 23.2486 246.959 22.8793 246.438 22.3537C245.922 21.8281 245.664 21.1581 245.664 20.3438C245.664 19.643 245.853 19.0393 246.232 18.5327C246.616 18.026 247.153 17.6354 247.844 17.3608C248.54 17.0862 249.355 16.9489 250.288 16.9489C251.665 16.9489 252.75 17.2401 253.54 17.8224C254.336 18.4048 254.8 19.1979 254.933 20.2017ZM86.2642 52V37.4545H92.0028C93.1061 37.4545 94.0459 37.6652 94.8224 38.0866C95.599 38.5033 96.1908 39.0833 96.598 39.8267C97.0099 40.5653 97.2159 41.4176 97.2159 42.3835C97.2159 43.3494 97.0076 44.2017 96.5909 44.9403C96.1742 45.679 95.5705 46.2543 94.7798 46.6662C93.9938 47.0781 93.0421 47.2841 91.9247 47.2841H88.267V44.8196H91.4276C92.0194 44.8196 92.5071 44.7178 92.8906 44.5142C93.2789 44.3059 93.5677 44.0194 93.7571 43.6548C93.9512 43.2855 94.0483 42.8617 94.0483 42.3835C94.0483 41.9006 93.9512 41.4792 93.7571 41.1193C93.5677 40.7547 93.2789 40.473 92.8906 40.2741C92.5024 40.0705 92.0099 39.9688 91.4134 39.9688H89.3395V52H86.2642ZM103.952 52.2131C102.83 52.2131 101.864 51.9858 101.055 51.5312C100.25 51.072 99.6295 50.4233 99.1939 49.5852C98.7583 48.7424 98.5405 47.7457 98.5405 46.5952C98.5405 45.473 98.7583 44.4882 99.1939 43.6406C99.6295 42.7931 100.243 42.1326 101.033 41.6591C101.829 41.1856 102.762 40.9489 103.832 40.9489C104.551 40.9489 105.221 41.0649 105.842 41.2969C106.467 41.5241 107.011 41.8674 107.475 42.3267C107.944 42.786 108.308 43.3636 108.569 44.0597C108.829 44.7509 108.96 45.5606 108.96 46.4886V47.3196H99.7479V45.4446H106.112C106.112 45.009 106.017 44.6231 105.827 44.2869C105.638 43.9508 105.375 43.688 105.039 43.4986C104.708 43.3045 104.322 43.2074 103.881 43.2074C103.422 43.2074 103.015 43.3139 102.66 43.527C102.309 43.7353 102.035 44.017 101.836 44.3722C101.637 44.7225 101.535 45.1132 101.531 45.544V47.3267C101.531 47.8665 101.63 48.3329 101.829 48.7259C102.032 49.1188 102.319 49.4219 102.688 49.6349C103.058 49.848 103.496 49.9545 104.002 49.9545C104.338 49.9545 104.646 49.9072 104.925 49.8125C105.205 49.7178 105.444 49.5758 105.643 49.3864C105.842 49.197 105.993 48.965 106.097 48.6903L108.896 48.875C108.754 49.5473 108.462 50.1345 108.022 50.6364C107.586 51.1335 107.023 51.5218 106.332 51.8011C105.645 52.0758 104.852 52.2131 103.952 52.2131ZM110.934 52V41.0909H113.867V42.9943H113.981C114.18 42.3172 114.513 41.8059 114.982 41.4602C115.451 41.1098 115.991 40.9347 116.602 40.9347C116.753 40.9347 116.916 40.9441 117.092 40.9631C117.267 40.982 117.421 41.008 117.553 41.0412V43.7259C117.411 43.6832 117.215 43.6454 116.964 43.6122C116.713 43.5791 116.483 43.5625 116.275 43.5625C115.83 43.5625 115.432 43.6596 115.082 43.8537C114.736 44.0431 114.461 44.3082 114.258 44.6491C114.059 44.9901 113.96 45.383 113.96 45.8281V52H110.934ZM128.96 52H123.803V37.4545H129.002C130.465 37.4545 131.725 37.7457 132.781 38.3281C133.836 38.9058 134.648 39.7367 135.217 40.821C135.79 41.9053 136.076 43.2027 136.076 44.7131C136.076 46.2282 135.79 47.5303 135.217 48.6193C134.648 49.7083 133.832 50.544 132.766 51.1264C131.706 51.7088 130.437 52 128.96 52ZM126.879 49.3651H128.832C129.741 49.3651 130.505 49.2041 131.126 48.8821C131.751 48.5554 132.219 48.0511 132.532 47.3693C132.849 46.6828 133.008 45.7973 133.008 44.7131C133.008 43.6383 132.849 42.7599 132.532 42.0781C132.219 41.3963 131.753 40.8944 131.133 40.5724C130.513 40.2505 129.748 40.0895 128.839 40.0895H126.879V49.3651ZM141.408 52.206C140.712 52.206 140.092 52.0852 139.547 51.8438C139.003 51.5975 138.572 51.2353 138.255 50.7571C137.942 50.2741 137.786 49.6728 137.786 48.9531C137.786 48.3471 137.897 47.8381 138.12 47.4261C138.342 47.0142 138.645 46.6828 139.029 46.4318C139.412 46.1809 139.848 45.9915 140.336 45.8636C140.828 45.7358 141.344 45.6458 141.884 45.5938C142.518 45.5275 143.03 45.4659 143.418 45.4091C143.806 45.3475 144.088 45.2576 144.263 45.1392C144.438 45.0208 144.526 44.8456 144.526 44.6136V44.571C144.526 44.1212 144.384 43.7732 144.1 43.527C143.82 43.2808 143.423 43.1577 142.907 43.1577C142.362 43.1577 141.929 43.2784 141.607 43.5199C141.285 43.7566 141.072 44.0549 140.968 44.4148L138.169 44.1875C138.311 43.5246 138.591 42.9517 139.007 42.4688C139.424 41.9811 139.962 41.607 140.62 41.3466C141.283 41.0814 142.05 40.9489 142.921 40.9489C143.527 40.9489 144.107 41.0199 144.661 41.1619C145.22 41.304 145.714 41.5241 146.145 41.8224C146.581 42.1207 146.924 42.5043 147.175 42.973C147.426 43.437 147.551 43.9934 147.551 44.642V52H144.682V50.4872H144.597C144.422 50.8281 144.187 51.1288 143.894 51.3892C143.6 51.6449 143.248 51.8461 142.836 51.9929C142.424 52.1349 141.948 52.206 141.408 52.206ZM142.275 50.1179C142.72 50.1179 143.113 50.0303 143.453 49.8551C143.794 49.6752 144.062 49.4337 144.256 49.1307C144.45 48.8277 144.547 48.4844 144.547 48.1009V46.9432C144.453 47.0047 144.322 47.0616 144.157 47.1136C143.996 47.161 143.813 47.206 143.61 47.2486C143.406 47.2865 143.203 47.322 142.999 47.3551C142.795 47.3835 142.611 47.4096 142.445 47.4332C142.09 47.4853 141.78 47.5682 141.515 47.6818C141.249 47.7955 141.043 47.9493 140.897 48.1435C140.75 48.3329 140.676 48.5696 140.676 48.8537C140.676 49.2656 140.826 49.5805 141.124 49.7983C141.427 50.0114 141.81 50.1179 142.275 50.1179ZM151.376 56.0909C150.993 56.0909 150.633 56.0601 150.297 55.9986C149.965 55.9418 149.69 55.8684 149.473 55.7784L150.154 53.5199C150.51 53.6288 150.829 53.688 151.113 53.6974C151.402 53.7069 151.651 53.6406 151.859 53.4986C152.072 53.3565 152.245 53.1151 152.377 52.7741L152.555 52.3125L148.642 41.0909H151.824L154.082 49.1023H154.196L156.475 41.0909H159.679L155.439 53.179C155.235 53.7661 154.958 54.2775 154.608 54.7131C154.262 55.1534 153.824 55.492 153.294 55.7287C152.763 55.9702 152.124 56.0909 151.376 56.0909ZM164.842 37.4545L164.565 47.6392H161.966L161.681 37.4545H164.842ZM163.265 52.1847C162.797 52.1847 162.394 52.0189 162.058 51.6875C161.722 51.3513 161.556 50.9489 161.561 50.4801C161.556 50.0161 161.722 49.6184 162.058 49.2869C162.394 48.9555 162.797 48.7898 163.265 48.7898C163.715 48.7898 164.11 48.9555 164.451 49.2869C164.792 49.6184 164.965 50.0161 164.97 50.4801C164.965 50.7926 164.882 51.0791 164.721 51.3395C164.565 51.5952 164.359 51.8011 164.103 51.9574C163.848 52.1089 163.568 52.1847 163.265 52.1847Z" fill="white"/>
<path d="M218.781 50.4102L224.659 52.0453C224.73 52.0656 224.794 52.1033 224.845 52.1549C224.897 52.2066 224.935 52.2705 224.955 52.3406L226.59 58.2195C226.615 58.3087 226.669 58.3871 226.743 58.4429C226.817 58.4987 226.907 58.5289 227 58.5289C227.093 58.5289 227.183 58.4987 227.257 58.4429C227.331 58.3871 227.385 58.3087 227.41 58.2195L229.045 52.3406C229.066 52.2705 229.103 52.2066 229.155 52.1549C229.207 52.1033 229.271 52.0656 229.341 52.0453L235.22 50.4102C235.309 50.3847 235.387 50.3309 235.443 50.2569C235.499 50.1829 235.529 50.0927 235.529 50C235.529 49.9073 235.499 49.8171 235.443 49.7431C235.387 49.6691 235.309 49.6153 235.22 49.5898L229.341 47.9547C229.271 47.9344 229.207 47.8967 229.155 47.8451C229.103 47.7934 229.066 47.7295 229.045 47.6594L227.41 41.7805C227.385 41.6913 227.331 41.6129 227.257 41.5571C227.183 41.5013 227.093 41.4711 227 41.4711C226.907 41.4711 226.817 41.5013 226.743 41.5571C226.669 41.6129 226.615 41.6913 226.59 41.7805L224.955 47.6594C224.935 47.7295 224.897 47.7934 224.845 47.8451C224.794 47.8967 224.73 47.9344 224.659 47.9547L218.781 49.5898C218.691 49.6153 218.613 49.6691 218.557 49.7431C218.501 49.8171 218.471 49.9073 218.471 50C218.471 50.0927 218.501 50.1829 218.557 50.2569C218.613 50.3309 218.691 50.3847 218.781 50.4102Z" fill="url(#paint1_linear_60_661)"/>
<path d="M186.716 41.2637L190.495 42.3148C190.54 42.3279 190.581 42.3521 190.615 42.3853C190.648 42.4185 190.672 42.4596 190.685 42.5047L191.736 46.284C191.753 46.3413 191.787 46.3917 191.835 46.4276C191.882 46.4635 191.94 46.4829 192 46.4829C192.06 46.4829 192.118 46.4635 192.165 46.4276C192.213 46.3917 192.247 46.3413 192.264 46.284L193.315 42.5047C193.328 42.4596 193.352 42.4185 193.385 42.3853C193.418 42.3521 193.46 42.3279 193.505 42.3148L197.284 41.2637C197.341 41.2473 197.392 41.2127 197.428 41.1651C197.463 41.1176 197.483 41.0596 197.483 41C197.483 40.9404 197.463 40.8824 197.428 40.8349C197.392 40.7873 197.341 40.7527 197.284 40.7363L193.505 39.6852C193.46 39.6721 193.418 39.6479 193.385 39.6147C193.352 39.5815 193.328 39.5404 193.315 39.4953L192.264 35.716C192.247 35.6587 192.213 35.6083 192.165 35.5724C192.118 35.5365 192.06 35.5171 192 35.5171C191.94 35.5171 191.882 35.5365 191.835 35.5724C191.787 35.6083 191.753 35.6587 191.736 35.716L190.685 39.4953C190.672 39.5404 190.648 39.5815 190.615 39.6147C190.581 39.6479 190.54 39.6721 190.495 39.6852L186.716 40.7363C186.659 40.7527 186.608 40.7873 186.572 40.8349C186.537 40.8824 186.517 40.9404 186.517 41C186.517 41.0596 186.537 41.1176 186.572 41.1651C186.608 41.2127 186.659 41.2473 186.716 41.2637Z" fill="url(#paint2_linear_60_661)"/>
<path d="M70.716 9.26368L74.4953 10.3148C74.5404 10.3279 74.5815 10.3521 74.6147 10.3853C74.6479 10.4185 74.6721 10.4596 74.6851 10.5047L75.7363 14.284C75.7527 14.3413 75.7873 14.3917 75.8348 14.4276C75.8824 14.4635 75.9404 14.4829 76 14.4829C76.0596 14.4829 76.1175 14.4635 76.1651 14.4276C76.2127 14.3917 76.2473 14.3413 76.2636 14.284L77.3148 10.5047C77.3278 10.4596 77.3521 10.4185 77.3853 10.3853C77.4185 10.3521 77.4595 10.3279 77.5047 10.3148L81.284 9.26368C81.3413 9.24731 81.3917 9.21272 81.4276 9.16514C81.4634 9.11757 81.4829 9.0596 81.4829 9C81.4829 8.94041 81.4634 8.88244 81.4276 8.83486C81.3917 8.78729 81.3413 8.7527 81.284 8.73633L77.5047 7.68516C77.4595 7.67214 77.4185 7.6479 77.3853 7.6147C77.3521 7.5815 77.3278 7.54043 77.3148 7.49532L76.2636 3.71602C76.2473 3.65872 76.2127 3.60831 76.1651 3.57242C76.1175 3.53653 76.0596 3.51712 76 3.51712C75.9404 3.51712 75.8824 3.53653 75.8348 3.57242C75.7873 3.60831 75.7527 3.65872 75.7363 3.71602L74.6851 7.49532C74.6721 7.54043 74.6479 7.5815 74.6147 7.6147C74.5815 7.6479 74.5404 7.67214 74.4953 7.68516L70.716 8.73633C70.6587 8.7527 70.6083 8.78729 70.5724 8.83486C70.5365 8.88244 70.5171 8.94041 70.5171 9C70.5171 9.0596 70.5365 9.11757 70.5724 9.16514C70.6083 9.21272 70.6587 9.24731 70.716 9.26368Z" fill="url(#paint3_linear_60_661)"/>
<path d="M5.78059 55.4102L11.6595 57.0453C11.7297 57.0656 11.7936 57.1033 11.8452 57.1549C11.8969 57.2066 11.9346 57.2705 11.9548 57.3406L13.59 63.2195C13.6154 63.3087 13.6692 63.3871 13.7432 63.4429C13.8172 63.4987 13.9074 63.5289 14.0001 63.5289C14.0928 63.5289 14.183 63.4987 14.257 63.4429C14.331 63.3871 14.3848 63.3087 14.4103 63.2195L16.0454 57.3406C16.0657 57.2705 16.1034 57.2066 16.155 57.1549C16.2067 57.1033 16.2706 57.0656 16.3407 57.0453L22.2197 55.4102C22.3088 55.3847 22.3872 55.3309 22.443 55.2569C22.4989 55.1829 22.5291 55.0927 22.5291 55C22.5291 54.9073 22.4989 54.8171 22.443 54.7431C22.3872 54.6691 22.3088 54.6153 22.2197 54.5898L16.3407 52.9547C16.2706 52.9344 16.2067 52.8967 16.155 52.8451C16.1034 52.7934 16.0657 52.7295 16.0454 52.6594L14.4103 46.7805C14.3848 46.6913 14.331 46.6129 14.257 46.5571C14.183 46.5013 14.0928 46.4711 14.0001 46.4711C13.9074 46.4711 13.8172 46.5013 13.7432 46.5571C13.6692 46.6129 13.6154 46.6913 13.59 46.7805L11.9548 52.6594C11.9346 52.7295 11.8969 52.7934 11.8452 52.8451C11.7936 52.8967 11.7297 52.9344 11.6595 52.9547L5.78059 54.5898C5.69145 54.6153 5.61304 54.6691 5.55722 54.7431C5.50139 54.8171 5.47119 54.9073 5.47119 55C5.47119 55.0927 5.50139 55.1829 5.55722 55.2569C5.61304 55.3309 5.69145 55.3847 5.78059 55.4102Z" fill="url(#paint4_linear_60_661)"/>
<defs>
<linearGradient id="paint0_linear_60_661" x1="45" y1="11.25" x2="45" y2="54.75" gradientUnits="userSpaceOnUse">
<stop stop-color="#FFEBB8"/>
<stop offset="1" stop-color="#FBC747"/>
</linearGradient>
<linearGradient id="paint1_linear_60_661" x1="223.276" y1="43.5523" x2="230.724" y2="56.4477" gradientUnits="userSpaceOnUse">
<stop stop-color="#FCD966"/>
<stop offset="0.5" stop-color="#FCD966"/>
<stop offset="1" stop-color="#FCCD34"/>
</linearGradient>
<linearGradient id="paint2_linear_60_661" x1="189.606" y1="36.8551" x2="194.394" y2="45.1449" gradientUnits="userSpaceOnUse">
<stop stop-color="#FCD966"/>
<stop offset="0.5" stop-color="#FCD966"/>
<stop offset="1" stop-color="#FCCD34"/>
</linearGradient>
<linearGradient id="paint3_linear_60_661" x1="73.6058" y1="4.85508" x2="78.3941" y2="13.1449" gradientUnits="userSpaceOnUse">
<stop stop-color="#FCD966"/>
<stop offset="0.5" stop-color="#FCD966"/>
<stop offset="1" stop-color="#FCCD34"/>
</linearGradient>
<linearGradient id="paint4_linear_60_661" x1="10.2759" y1="48.5523" x2="17.7243" y2="61.4477" gradientUnits="userSpaceOnUse">
<stop stop-color="#FCD966"/>
<stop offset="0.5" stop-color="#FCD966"/>
<stop offset="1" stop-color="#FCCD34"/>
</linearGradient>
</defs>
</svg>
