<svg width="54" height="32" viewBox="0 0 54 32" fill="none" xmlns="http://www.w3.org/2000/svg">
<path d="M42.75 27.25V31.75H15.75V27.25C15.75 27.25 15.75 18.25 29.25 18.25C42.75 18.25 42.75 27.25 42.75 27.25ZM36 7C36 5.66498 35.6041 4.35994 34.8624 3.2499C34.1207 2.13987 33.0665 1.27471 31.8331 0.763816C30.5997 0.252925 29.2425 0.119252 27.9331 0.379702C26.6238 0.640153 25.421 1.28303 24.477 2.22703C23.533 3.17104 22.8901 4.37377 22.6297 5.68314C22.3692 6.99252 22.5029 8.34971 23.0138 9.58312C23.5247 10.8165 24.3899 11.8707 25.4999 12.6124C26.6099 13.3541 27.915 13.75 29.25 13.75C31.0402 13.75 32.7571 13.0388 34.023 11.773C35.2888 10.5071 36 8.79021 36 7ZM43.2 18.385C44.4299 19.5197 45.4215 20.888 46.1169 22.4101C46.8122 23.9321 47.1974 25.5774 47.25 27.25V31.75H54V27.25C54 27.25 54 19.4875 43.2 18.385ZM40.5 0.250003C39.8202 0.250409 39.1446 0.356683 38.4975 0.565002C39.8139 2.45268 40.5196 4.69866 40.5196 7C40.5196 9.30134 39.8139 11.5473 38.4975 13.435C39.1446 13.6433 39.8202 13.7496 40.5 13.75C42.2902 13.75 44.0071 13.0388 45.273 11.773C46.5388 10.5071 47.25 8.79021 47.25 7C47.25 5.20979 46.5388 3.4929 45.273 2.22703C44.0071 0.961161 42.2902 0.250003 40.5 0.250003ZM18 11.5H11.25V4.75H6.75V11.5H0V16H6.75V22.75H11.25V16H18V11.5Z" fill="white"/>
</svg>
