<svg width="56" height="56" viewBox="0 0 56 56" fill="none" xmlns="http://www.w3.org/2000/svg">
<g clip-path="url(#clip0_59_10)">
<path d="M28 0C20.5756 0 13.4487 2.95181 8.20312 8.20094C2.95209 13.4521 0.00145456 20.5738 0 28C0 35.4231 2.95312 42.5499 8.20312 47.7991C13.4487 53.0482 20.5756 56 28 56C35.4244 56 42.5513 53.0482 47.7969 47.7991C53.0469 42.5499 56 35.4231 56 28C56 20.5769 53.0469 13.4501 47.7969 8.20094C42.5513 2.95181 35.4244 0 28 0Z" fill="url(#paint0_linear_59_10)"/>
<path d="M12.6743 27.7042C20.8381 24.1482 26.2806 21.8037 29.0018 20.671C36.7806 17.4365 38.395 16.8748 39.4493 16.8558C39.6812 16.852 40.1975 16.9093 40.5343 17.1817C40.8143 17.4114 40.8931 17.722 40.9325 17.9401C40.9675 18.158 41.0156 18.6545 40.9762 19.0422C40.5562 23.4697 38.7318 34.2138 37.8043 39.1729C37.415 41.2711 36.6406 41.9746 35.8925 42.0433C34.265 42.1929 33.0312 40.9688 31.4562 39.9367C28.9931 38.321 27.6018 37.3157 25.2087 35.7394C22.4437 33.9176 24.2375 32.9162 25.8125 31.2799C26.2237 30.8516 33.39 24.335 33.5256 23.744C33.5431 23.67 33.5606 23.3944 33.3943 23.2492C33.2325 23.1035 32.9918 23.1534 32.8168 23.1927C32.5675 23.2487 28.6343 25.851 21.0043 30.999C19.8887 31.7664 18.8781 32.1405 17.9681 32.1208C16.9706 32.0993 15.0456 31.5555 13.615 31.0909C11.865 30.5209 10.4693 30.2194 10.5918 29.2512C10.6531 28.7472 11.3487 28.2314 12.6743 27.7042Z" fill="white"/>
</g>
<defs>
<linearGradient id="paint0_linear_59_10" x1="2800" y1="0" x2="2800" y2="5600" gradientUnits="userSpaceOnUse">
<stop stop-color="#2AABEE"/>
<stop offset="1" stop-color="#229ED9"/>
</linearGradient>
<clipPath id="clip0_59_10">
<rect width="56" height="56" fill="white"/>
</clipPath>
</defs>
</svg>
