<svg width="52" height="44" viewBox="0 0 52 44" fill="none" xmlns="http://www.w3.org/2000/svg">
<path d="M46.6765 11.392C46.709 11.8492 46.709 12.3085 46.709 12.77C46.709 26.8685 35.9753 43.125 16.354 43.125V43.1185C10.5565 43.1264 4.87921 41.4657 0 38.3345C2.79317 38.6711 5.6253 38.4537 8.33442 37.6949C11.0435 36.9361 13.5765 35.6508 15.7885 33.9123C13.5621 33.8702 11.4046 33.1333 9.61758 31.8047C7.83058 30.4761 6.50347 28.6222 5.82183 26.5023C7.42015 26.8105 9.06783 26.7482 10.6383 26.3203C8.22409 25.8323 6.05295 24.5243 4.49309 22.6181C2.93323 20.7119 2.08067 18.3249 2.08 15.8618V15.7275C3.56375 16.5544 5.22465 17.0121 6.9225 17.0622C4.66368 15.5539 3.06457 13.2414 2.45072 10.5956C1.83686 7.94978 2.2544 5.16947 3.61833 2.82066C6.29765 6.11649 9.64018 8.81196 13.4289 10.7321C17.2176 12.6522 21.3678 13.754 25.61 13.966C25.0815 11.6798 25.3208 9.28315 26.2907 7.1465C27.2606 5.00984 28.9072 3.25211 30.9761 2.14493C33.045 1.03775 35.4209 0.642774 37.7367 1.02104C40.0525 1.3993 42.1793 2.52974 43.7883 4.23766C46.1786 3.76632 48.4707 2.88993 50.5657 1.64633C49.7694 4.11736 48.1024 6.21485 45.8748 7.54833C47.989 7.29795 50.0537 6.73193 52 5.86916C50.5674 8.01152 48.7648 9.88166 46.6765 11.392Z" fill="#11A6FA"/>
</svg>
