<svg width="19" height="19" viewBox="0 0 19 19" fill="none" xmlns="http://www.w3.org/2000/svg">
<mask id="mask0_45_637" style="mask-type:luminance" maskUnits="userSpaceOnUse" x="0" y="0" width="19" height="19">
<path d="M9.5 2C13.6422 2 17 5.35775 17 9.5C17 13.6422 13.6422 17 9.5 17C5.35775 17 2 13.6422 2 9.5C2 5.35775 5.35775 2 9.5 2Z" stroke="white" stroke-width="4"/>
<path d="M9.5 2C13.6423 2 17 5.35775 17 9.5C17 13.6422 13.6423 17 9.5 17C5.35775 17 2 13.6422 2 9.5C2 5.35775 5.35775 2 9.5 2Z" fill="white" stroke="white" stroke-width="4" stroke-linejoin="round"/>
<path d="M12.875 8.375L9.5 11.75L6.125 8.375" stroke="black" stroke-width="4" stroke-linecap="round" stroke-linejoin="round"/>
</mask>
<g mask="url(#mask0_45_637)">
<path d="M-1.5 20.5H20.5V-1.5H-1.5V20.5Z" fill="black"/>
</g>
</svg>
