<svg width="58" height="58" viewBox="0 0 58 58" fill="none" xmlns="http://www.w3.org/2000/svg">
<path fill-rule="evenodd" clip-rule="evenodd" d="M36.25 4.83337C37.0984 4.8334 37.9318 5.05674 38.6666 5.48095C39.4013 5.90516 40.0114 6.5153 40.4356 7.25004H43.5C44.7818 7.25004 46.0112 7.75926 46.9176 8.66569C47.8241 9.57212 48.3333 10.8015 48.3333 12.0834V41.0834C48.3333 44.2881 47.0602 47.3615 44.7942 49.6276C42.5281 51.8936 39.4547 53.1667 36.25 53.1667H14.5C13.2181 53.1667 11.9887 52.6575 11.0823 51.7511C10.1759 50.8446 9.66663 49.6152 9.66663 48.3334V12.0834C9.66663 10.8015 10.1759 9.57212 11.0823 8.66569C11.9887 7.75926 13.2181 7.25004 14.5 7.25004H17.5643C17.9885 6.5153 18.5986 5.90516 19.3334 5.48095C20.0681 5.05674 20.9016 4.8334 21.75 4.83337H36.25ZM35.8246 22.666L25.5731 32.9199L22.1535 29.5003C21.6978 29.0601 21.0873 28.8165 20.4537 28.822C19.82 28.8275 19.2139 29.0817 18.7658 29.5297C18.3177 29.9778 18.0636 30.5839 18.0581 31.2176C18.0526 31.8512 18.2962 32.4617 18.7364 32.9175L23.6905 37.874C23.9374 38.121 24.2305 38.3169 24.5531 38.4506C24.8757 38.5843 25.2215 38.6531 25.5707 38.6531C25.9199 38.6531 26.2657 38.5843 26.5883 38.4506C26.9109 38.3169 27.204 38.121 27.4509 37.874L39.2442 26.0831C39.4686 25.8586 39.6465 25.5921 39.7679 25.2988C39.8893 25.0054 39.9517 24.6911 39.9516 24.3737C39.9515 24.0563 39.8888 23.742 39.7673 23.4487C39.6457 23.1555 39.4675 22.8891 39.243 22.6647C39.0185 22.4404 38.7519 22.2624 38.4586 22.1411C38.1653 22.0197 37.851 21.9573 37.5336 21.9574C37.2161 21.9575 36.9018 22.0201 36.6086 22.1417C36.3154 22.2633 36.049 22.4414 35.8246 22.666ZM35.0416 9.66671H22.9583C22.6755 9.66661 22.4016 9.76572 22.1843 9.94677C21.9671 10.1278 21.8202 10.3793 21.7693 10.6575L21.75 10.875V13.2917C21.7499 13.5745 21.849 13.8484 22.03 14.0657C22.2111 14.2829 22.4626 14.4298 22.7408 14.4807L22.9583 14.5H35.0416C35.3244 14.5001 35.5983 14.401 35.8156 14.22C36.0328 14.0389 36.1797 13.7874 36.2306 13.5092L36.25 13.2917V10.875C36.2501 10.5922 36.1509 10.3183 35.9699 10.1011C35.7888 9.88382 35.5373 9.73695 35.2591 9.68604L35.0416 9.66671Z" fill="white"/>
</svg>
