<svg width="58" height="58" viewBox="0 0 58 58" fill="none" xmlns="http://www.w3.org/2000/svg">
<path d="M51.5427 19.3334H44.4667L42.9587 10.324C42.6549 8.96091 41.9876 7.70551 41.0276 6.69113C40.0677 5.67674 38.851 4.94123 37.5067 4.5627C36.1561 4.12818 34.7492 3.8937 33.3307 3.8667H24.6694C23.2509 3.8937 21.844 4.12818 20.4934 4.5627C19.1491 4.94123 17.9324 5.67674 16.9725 6.69113C16.0126 7.70551 15.3452 8.96091 15.0414 10.324L13.5334 19.3334H6.45739C6.15285 19.3315 5.85218 19.4016 5.57988 19.538C5.30757 19.6744 5.07134 19.8732 4.89043 20.1182C4.70951 20.3632 4.58903 20.6474 4.5388 20.9478C4.48858 21.2482 4.51002 21.5562 4.60139 21.8467L11.8707 46.2067C12.2408 47.3835 12.9765 48.4116 13.9708 49.1418C14.9652 49.8719 16.1664 50.2659 17.4001 50.2667H40.6001C41.8271 50.2578 43.0196 49.8599 44.0062 49.1304C44.9928 48.4009 45.7227 47.3772 46.0907 46.2067L53.3601 21.8467C53.4505 21.5593 53.4725 21.2547 53.4243 20.9573C53.3761 20.6599 53.2591 20.3778 53.0825 20.1337C52.906 19.8895 52.6748 19.69 52.4075 19.5511C52.1401 19.4121 51.844 19.3376 51.5427 19.3334ZM17.4774 19.3334L18.8694 10.9427C19.022 10.2576 19.376 9.63383 19.8859 9.1515C20.3958 8.66918 21.0382 8.35036 21.7307 8.23603C22.6819 7.93443 23.6718 7.76817 24.6694 7.73337H33.3307C34.3399 7.7643 35.3414 7.93443 36.3081 8.23603C37.0006 8.35036 37.643 8.66918 38.1529 9.1515C38.6628 9.63383 39.0168 10.2576 39.1694 10.9427L40.5227 19.3334H17.3227H17.4774Z" fill="white"/>
<g clip-path="url(#clip0_59_17)">
<path d="M37.3333 28.2444C36.5889 26.7166 34.4445 25.4666 31.95 26.1944C30.758 26.5387 29.7181 27.277 29 28.2888C28.2819 27.277 27.242 26.5387 26.05 26.1944C23.55 25.4777 21.4111 26.7166 20.6667 28.2444C19.6222 30.3833 20.0556 32.7888 21.9556 35.3944C23.4445 37.4333 25.5722 39.4999 28.6611 41.8999C28.7587 41.9761 28.879 42.0174 29.0028 42.0174C29.1266 42.0174 29.2468 41.9761 29.3445 41.8999C32.4278 39.5055 34.5611 37.4555 36.05 35.3944C37.9445 32.7888 38.3778 30.3833 37.3333 28.2444Z" fill="#E40000"/>
</g>
<defs>
<clipPath id="clip0_59_17">
<rect width="20" height="20" fill="white" transform="translate(19 24)"/>
</clipPath>
</defs>
</svg>
