<svg width="92" height="92" viewBox="0 0 92 92" fill="none" xmlns="http://www.w3.org/2000/svg">
<path d="M85.7556 35.7706C84.2241 34.17 82.6397 32.5206 82.0425 31.0703C81.49 29.7419 81.4575 27.54 81.425 25.4072C81.3641 21.4422 81.2991 16.9491 78.175 13.825C75.0509 10.7009 70.5578 10.6359 66.5928 10.575C64.46 10.5425 62.2581 10.51 60.9297 9.9575C59.4834 9.36031 57.83 7.77594 56.2294 6.24437C53.4262 3.55094 50.2412 0.5 46 0.5C41.7588 0.5 38.5778 3.55094 35.7706 6.24437C34.17 7.77594 32.5206 9.36031 31.0703 9.9575C29.75 10.51 27.54 10.5425 25.4072 10.575C21.4422 10.6359 16.9491 10.7009 13.825 13.825C10.7009 16.9491 10.6562 21.4422 10.575 25.4072C10.5425 27.54 10.51 29.7419 9.9575 31.0703C9.36031 32.5166 7.77594 34.17 6.24437 35.7706C3.55094 38.5737 0.5 41.7588 0.5 46C0.5 50.2412 3.55094 53.4222 6.24437 56.2294C7.77594 57.83 9.36031 59.4794 9.9575 60.9297C10.51 62.2581 10.5425 64.46 10.575 66.5928C10.6359 70.5578 10.7009 75.0509 13.825 78.175C16.9491 81.2991 21.4422 81.3641 25.4072 81.425C27.54 81.4575 29.7419 81.49 31.0703 82.0425C32.5166 82.6397 34.17 84.2241 35.7706 85.7556C38.5737 88.4491 41.7588 91.5 46 91.5C50.2412 91.5 53.4222 88.4491 56.2294 85.7556C57.83 84.2241 59.4794 82.6397 60.9297 82.0425C62.2581 81.49 64.46 81.4575 66.5928 81.425C70.5578 81.3641 75.0509 81.2991 78.175 78.175C81.2991 75.0509 81.3641 70.5578 81.425 66.5928C81.4575 64.46 81.49 62.2581 82.0425 60.9297C82.6397 59.4834 84.2241 57.83 85.7556 56.2294C88.4491 53.4262 91.5 50.2412 91.5 46C91.5 41.7588 88.4491 38.5778 85.7556 35.7706ZM64.5494 38.5494L41.7994 61.2994C41.4975 61.6016 41.1391 61.8413 40.7446 62.0048C40.35 62.1684 39.9271 62.2526 39.5 62.2526C39.0729 62.2526 38.65 62.1684 38.2554 62.0048C37.8609 61.8413 37.5025 61.6016 37.2006 61.2994L27.4506 51.5494C27.1487 51.2474 26.9091 50.8889 26.7457 50.4944C26.5823 50.0999 26.4982 49.677 26.4982 49.25C26.4982 48.823 26.5823 48.4001 26.7457 48.0056C26.9091 47.6111 27.1487 47.2526 27.4506 46.9506C28.0605 46.3408 28.8876 45.9982 29.75 45.9982C30.177 45.9982 30.5999 46.0823 30.9944 46.2457C31.3889 46.4091 31.7474 46.6487 32.0494 46.9506L39.5 54.4053L59.9506 33.9506C60.2526 33.6487 60.6111 33.4091 61.0056 33.2457C61.4001 33.0823 61.823 32.9982 62.25 32.9982C62.677 32.9982 63.0999 33.0823 63.4944 33.2457C63.8889 33.4091 64.2474 33.6487 64.5494 33.9506C64.8513 34.2526 65.0909 34.6111 65.2543 35.0056C65.4177 35.4001 65.5018 35.823 65.5018 36.25C65.5018 36.677 65.4177 37.0999 65.2543 37.4944C65.0909 37.8889 64.8513 38.2474 64.5494 38.5494Z" fill="#6FCD35"/>
</svg>
